<svg width="70" height="70" viewBox="0 0 70 70" fill="none" xmlns="http://www.w3.org/2000/svg">
<path fill-rule="evenodd" clip-rule="evenodd" d="M0 0H2.25812H4.51609H6.77422H9.03235H11.2905H13.5484H15.8066V2.25796V4.5161V6.77422V9.03236V11.2903V13.5484V15.8064H13.5484H11.2905H9.03235H6.77422H4.51609H2.25812H0V13.5484V11.2903V9.03236V6.77422V4.5161V2.25796V0ZM51.9356 63.2258H49.6777H47.4197V60.9678H49.6777H51.9356V58.7099V56.4517V54.1938V51.9358H49.6777V49.6777H51.9356H54.1938V51.9358H56.4517V49.6777H58.7097V51.9358H60.9678V49.6777H63.2258V47.4197V45.1616H60.9678H58.7097V42.9036H60.9678H63.2258V40.6457V38.3875H60.9678V36.1296H58.7097H56.4517V33.8716H54.1938V31.6135H56.4517V29.3553H58.7097V31.6135V33.8716H60.9678V31.6135H63.2258V33.8716V36.1296H65.4838V38.3875H67.7419V36.1296H69.9998V33.8716V31.6135H67.7419V29.3553H65.4838H63.2258H60.9678V27.0974H58.7097V24.8392H60.9678V22.5811V20.3232H63.2258H65.4838V18.065H63.2258H60.9678V20.3232H58.7097V18.065H56.4517V20.3232H54.1938V18.065H51.9356V15.8069V13.5489V11.2908V9.03284V6.77471V4.51659H49.6777V2.25846H51.9356V0.000497097H49.6777H47.4197H45.1616V2.25846H47.4197V4.51659H49.6777V6.77471H47.4197V9.03284H45.1616V6.77471V4.51659H42.9036V2.25846V0.000497097H40.6457V2.25846H38.3875V0.000497097H36.1296V2.25846V4.51659H38.3875V6.77471H40.6457V9.03284V11.2908H42.9036H45.1616V13.5489V15.8069V18.065V20.3232H47.4197H49.6777V22.5811H47.4197H45.1616H42.9036V20.3232H40.6457H38.3875V22.5811H36.1296V20.3232V18.065H33.8714V20.3232H31.6133H29.3553H27.0972V18.065H29.3553V15.8069H31.6133H33.8714H36.1296V13.5489H38.3875V11.2908V9.03284H36.1296V6.77471H33.8714V9.03284V11.2908H36.1296V13.5489H33.8714H31.6133V11.2908H29.3553V9.03284V6.77471H27.0972V4.51659V2.25846H29.3553V0.000497097H27.0972V2.25846H24.8389V0.000497097H22.5808V2.25846H20.3227V0.000497097H18.0647V2.25846V4.51659H20.3227V6.77471H18.0647V9.03284H20.3227V6.77471H22.5808V9.03284H24.8389V11.2908H22.5808H20.3227H18.0647V13.5489H20.3227V15.8069H18.0647V18.065H20.3227V20.3232V22.5811H22.5808V24.8392H20.3227H18.0647V27.0974H20.3227V29.3553V31.6135H18.0647H15.8066V33.8716H18.0647V36.1296H15.8066V38.3875H13.5484V36.1296V33.8716V31.6135V29.3553V27.0974H15.8066V24.8392V22.5811V20.3232V18.065H13.5484H11.2905H9.03235H6.77422V20.3232H9.03235V22.5811H6.77422H4.51609H2.25812V20.3232V18.065H0V20.3232V22.5811H2.25812V24.8392H0V27.0974V29.3553V31.6135V33.8716H2.25812V31.6135H4.51609V29.3553H2.25812V27.0974H4.51609H6.77422V29.3553H9.03235V27.0974H11.2905V29.3553V31.6135H9.03235H6.77422V33.8716V36.1296V38.3875H4.51609H2.25812H0V40.6457H2.25812V42.9036H0V45.1616V47.4197H2.25812V49.6777H4.51609V51.9358H6.77422H9.03235V49.6777H6.77422H4.51609V47.4197H6.77422V45.1616H9.03235V42.9036H11.2905H13.5484V40.6457H15.8066V42.9036V45.1616H13.5484V47.4197H15.8066V49.6777H18.0647V47.4197H20.3227V45.1616H18.0647V42.9036H20.3227V40.6457V38.3875V36.1296V33.8716V31.6135H22.5808H24.8389V29.3553H27.0969V31.6135H29.355V33.8716V36.1296H31.613H33.8711V38.3875H31.613H29.355H27.0969V36.1296V33.8716H24.8389H22.5808V36.1296H24.8389V38.3875H22.5808V40.6457H24.8389V42.9036H27.0969V45.1616H24.8389H22.5808V47.4197H24.8389H27.0969V45.1616H29.355V47.4197V49.6777H31.613H33.8711V51.9358V54.1938H36.1292V51.9358V49.6777H33.8711V47.4197H36.1292V45.1616V42.9036V40.6457H33.8711V38.3875H36.1292H38.3872V36.1296V33.8716H36.1292V36.1296H33.8711V33.8716V31.6135H31.613V29.3553H33.8711V27.0974V24.8392H31.613V22.5811H33.8711H36.1296L36.1292 24.8392H38.3872V27.0974V29.3553H36.1292V31.6135H38.3872H40.6453H42.9033V33.8716H45.1612V36.1296H42.9033V38.3875V40.6457H40.6453V42.9036H38.3872V45.1616V47.4197H40.6453V45.1616V42.9036H42.9033V45.1616V47.4197H45.1612H47.4194V49.6777V51.9358H45.1612V49.6777H42.9033H40.6453H38.3872V51.9358H40.6453V54.1938H42.9033H45.1612H47.4194V51.9358H49.6777L49.6774 54.1938V56.4517H47.4194V58.7099L47.4197 60.9678H45.1612V63.2258H47.4197L47.4194 65.4838H45.1612V67.7419V69.9998H47.4194H49.6774H51.9353V67.7419H49.6774V65.4838H51.9353H54.1934V67.7419V69.9998H56.4514H58.7094V67.7419H56.4514V65.4838V63.2258V60.9678H54.1934V63.2258H51.9356ZM65.4839 56.4516V58.7097H67.742H70V60.9677V63.2256H67.742V60.9677H65.4839H63.226H60.968V63.2256V65.4836H58.7099V63.2256V60.9677V58.7097H56.4519V56.4516H54.1939V54.1936H56.4519V56.4516H58.7099V54.1936H60.968V56.4516H58.7099V58.7097H60.968H63.226V56.4516V54.1936H65.4839H67.742H70V56.4516H67.742H65.4839ZM65.4839 65.4838V67.7419V69.9998H63.226H60.968V67.7419H63.226V65.4838V63.2258H65.4839V65.4838ZM70.0002 67.742V70H67.7422V67.742V65.4839H70.0002V67.742ZM40.6453 67.742H42.9033V70H40.6453H38.3872H36.1292H33.8711V67.742H36.1292H38.3872H40.6453ZM31.613 67.742V70H29.355H27.0969V67.742H24.8389V65.4839V63.226H27.0969V65.4839H29.355H31.613V63.226H33.8711V60.968H31.613H29.355V58.71H27.0969V60.968H24.8389V58.71H27.0969V56.4519H24.8389V54.1939H22.5808V51.936V49.6778H24.8389V51.936H27.0969V54.1939V56.4519H29.355H31.613V58.71H33.8711V60.968H36.1292V63.226H33.8711V65.4839H31.613V67.742ZM20.3227 67.742H22.5808V70H20.3227H18.0647V67.742H20.3227ZM15.8066 67.742V70H13.5484H11.2905H9.03235H6.77422H4.51609H2.25812H0V67.742V65.4839V63.226V60.968V58.71V56.4519V54.1939H2.25812H4.51609H6.77422H9.03235H11.2905H13.5484H15.8066V56.4519V58.71V60.968V63.226V65.4839V67.742ZM11.2905 67.742H9.03235H6.77422H4.51609H2.25812V65.4839V63.226V60.968V58.71V56.4519H4.51609H6.77422H9.03235H11.2905H13.5484V58.71V60.968V63.226V65.4839V67.742H11.2905ZM42.9035 63.2258V65.4838H40.6455H38.3874V63.2258H40.6455V60.9678H38.3874V58.7099V56.4517H40.6455V58.7099H42.9035V56.4517H45.1614V58.7099H42.9035V60.9678V63.2258ZM22.5808 63.2258V65.4838H20.3227H18.0647V63.2258H20.3227V60.9678H22.5808V63.2258ZM11.2905 63.2258V65.4838H9.03235H6.77422H4.51609V63.2258V60.9678V58.7099H6.77422H9.03235H11.2905V60.9678V63.2258ZM18.0647 56.4516H20.3227V58.7097H18.0647V56.4516ZM29.355 51.9356H31.613V54.1936H29.355V51.9356ZM18.0647 51.9356H20.3227V54.1936H18.0647V51.9356ZM65.4839 49.6774H67.742V47.4194H65.4839V45.1613V42.9033V40.6453H67.742V42.9033H70V45.1613V47.4194V49.6774H67.742V51.9355H65.4839V49.6774ZM11.2905 49.6774H13.5484V51.9355H11.2905V49.6774ZM56.4517 47.4194H54.1938H51.9356H49.6777L47.4194 47.4197L47.4197 45.1613H49.6777H51.9356V42.9033V40.6453H54.1938V38.3872H51.9356V36.1292H54.1938L56.4517 36.1296V38.3872H58.7097V40.6453H56.4517V42.9033H54.1938V45.1613H56.4517L58.7097 45.1616V47.4194H56.4517ZM2.25812 47.4197V45.1613V42.9036L4.51609 42.9033V40.6453H6.77422V42.9033V45.1616L4.51609 45.1613V47.4197H2.25812ZM47.4195 42.9031V40.6452H45.1614V38.387L45.1612 36.1296L47.4195 36.1291V33.8711L45.1612 33.8716L45.1614 31.613H47.4195H49.6775V29.3549V27.0969V24.8388L49.6777 22.5811L51.9355 22.5806V20.3227L54.1938 20.3232L54.1936 22.5806H56.4516V24.8388V27.0969L56.4517 29.3553L54.1936 29.3549V27.0969H51.9355V29.3549V31.613V33.8711H49.6775V36.1291V38.387L51.9356 38.3872V40.6453L49.6775 40.6452V42.9031H47.4195ZM31.613 42.9031V40.6452L33.8711 40.6457V42.9031H31.613ZM27.0969 42.9036V40.6452H29.355V42.9031L27.0969 42.9036ZM24.8389 40.6457V38.3875H27.0969V40.6452L24.8389 40.6457ZM15.8066 40.6457V38.3875L18.0647 38.387V40.6452L15.8066 40.6457ZM11.2905 40.6452H9.03235V38.387H11.2905L13.5484 38.3875V40.6457L11.2905 40.6452ZM42.9035 29.3549V27.0969H40.6455V24.8388L38.3872 24.8392L38.3875 22.5811L40.6455 22.5806L42.9036 22.5811L42.9035 24.8388H45.1614V27.0969V29.3549H42.9035ZM22.5808 29.3549V27.0969H24.8389V29.3553L22.5808 29.3549ZM29.355 27.0967H27.0969V24.8386H24.8389V22.5805V20.3225L27.0972 20.3232L27.0969 22.5805H29.355V24.8386L31.613 24.8392V27.0967H29.355ZM11.2905 27.0974V24.8386H9.03235V22.5811L11.2905 22.5805V20.3225H13.5484V22.5805V24.8386V27.0974H11.2905ZM6.77422 27.0974V24.8386H9.03235V27.0974H6.77422ZM70.0002 24.8388V27.0969H67.7422H65.4841H63.2261V24.8388V22.5806H65.4841V24.8388H67.7422V22.5806V20.3227V18.0645H70.0002V20.3227V22.5806V24.8388ZM56.4516 22.5806L56.4517 20.3232H58.7097V22.5806H56.4516ZM49.6777 20.3232L49.6775 18.0644L51.9356 18.065L51.9355 20.3227L49.6777 20.3232ZM22.5808 20.3225V18.0644H24.8389V20.3225H22.5808ZM24.8389 18.0644V15.8064H22.5808V13.5484H24.8389V11.2908L27.0969 11.2903V13.5484V15.8064L27.0972 18.065L24.8389 18.0644ZM20.3227 18.065V15.8069L22.5808 15.8064V18.0644L20.3227 18.065ZM47.4195 15.8064V13.5484V11.2903L47.4197 9.03284L49.6775 9.03236V11.2903V13.5484V15.8064H47.4195ZM40.6453 15.8064H42.9033V18.0645H40.6453H38.3872V15.8064H40.6453ZM70.0002 13.5484V15.8064H67.7422H65.4841H63.2261H60.9681H58.71H56.4521H54.1941V13.5484V11.2903V9.03236V6.77422V4.5161V2.25796V0H56.4521H58.71H60.9681H63.2261H65.4841H67.7422H70.0002V2.25796V4.5161V6.77422V9.03236V11.2903V13.5484ZM65.4839 13.5484H63.226H60.968H58.7099H56.4519V11.2903V9.03236V6.77422V4.5161V2.25796H58.7099H60.968H63.226H65.4839H67.742V4.5161V6.77422V9.03236V11.2903V13.5484H65.4839ZM13.5484 13.5484V11.2903V9.03236V6.77422V4.5161V2.25796H11.2905H9.03235H6.77422H4.51609H2.25812V4.5161V6.77422V9.03236V11.2903V13.5484H4.51609H6.77422H9.03235H11.2905H13.5484ZM65.4839 9.03219V11.2902H63.226H60.968H58.7099V9.03219V6.77406V4.51593H60.968H63.226H65.4839V6.77406V9.03219ZM24.8389 9.03284V6.77406L27.0972 6.77471L27.0969 9.03219L24.8389 9.03284ZM11.2905 9.03219V6.77406V4.51593H9.03235H6.77422H4.51609V6.77406V9.03219V11.2902H6.77422H9.03235H11.2905V9.03219ZM22.5808 4.5161V2.25846H24.8389V4.5161H22.5808ZM33.8711 2.25796V4.5161H31.613V2.25796V0H33.8711V2.25796Z" fill="#F38660"/>
</svg>
